<svg width="100%" height="100%" viewBox="0 0 123 32" fill="none" xmlns="http://www.w3.org/2000/svg">
    <path d="M60.8376 9.4335C63.5431 9.40318 65.8392 11.6798 65.8002 14.3961C65.8002 15.3838 65.5359 16.2828 65.0095 17.082C64.4918 17.8727 63.7987 18.4792 62.9387 18.8799L65.8023 22.5623H60.3502L57.8787 19.3586H53.306V22.5623H48.1875V9.43134H60.8398L60.8376 9.4335ZM53.3039 13.274V15.5116H59.5466C59.8585 15.5116 60.1228 15.4033 60.3372 15.1889C60.5517 14.9744 60.6686 14.6993 60.6686 14.3982C60.6686 13.7722 60.1704 13.274 59.5444 13.274H53.3017H53.3039Z" fill="currentColor"></path>
    <path d="M79.9371 13.8048V17.2792C79.9371 17.7839 79.5277 18.1933 79.023 18.1933H72.1348V14.7189C72.1348 14.2141 72.5442 13.8048 73.0489 13.8048H79.9371ZM84.8434 9.43353H67.2285V22.5645H84.8434V9.43353Z" fill="currentColor"></path>
    <path d="M98.9255 9.4335C101.631 9.40318 103.927 11.6798 103.888 14.3961C103.888 15.3838 103.624 16.2828 103.097 17.082C102.58 17.8727 101.887 18.4792 101.027 18.8799L103.89 22.5623H98.4381L95.9666 19.3586H91.3939V22.5623H86.2754V9.43134H98.9277L98.9255 9.4335ZM91.3918 13.274V15.5116H97.6345C97.9464 15.5116 98.2107 15.4033 98.4251 15.1889C98.6396 14.9744 98.7565 14.6993 98.7565 14.3982C98.7565 13.7722 98.2583 13.274 97.6323 13.274H91.3896H91.3918Z" fill="currentColor"></path>
    <path d="M118.027 13.8048V17.2792C118.027 17.7839 117.617 18.1933 117.113 18.1933H110.224V14.7189C110.224 14.2141 110.634 13.8048 111.138 13.8048H118.027ZM122.935 9.43353H105.32V22.5645H122.935V9.43353Z" fill="currentColor"></path>
    <path fillRule="evenodd" clipRule="evenodd" d="M20.942 24.2345L25.0684 21.7911C26.4807 22.6316 27.8974 23.4677 29.3119 24.3038L28.5212 25.6425L25.0684 23.5976L21.6178 25.6425L20.825 24.3038L20.9442 24.2345H20.942ZM16.6444 8.14892L12.4335 10.5793C10.9909 9.74751 9.54606 8.91572 8.1056 8.07961L8.88107 6.73445L12.4335 8.78792L15.9881 6.73445L16.7614 8.07961L16.6423 8.14892H16.6444ZM19.2611 10.3887L18.5549 9.16266L22.1052 7.11135V3.55459H23.6648V7.11135L26.5674 8.78792L28.9999 7.38428V2.8896L23.9897 0L19.5318 2.57551L15.1195 0.0281595L11.7252 1.83253L15.3642 3.93366L14.5866 5.27882L10.1071 2.69248L5.216 5.29398V9.94246L8.7641 11.9938L7.99079 13.3389L4.46869 11.3049L0 14.3029V19.1788L4.50768 22.2005L7.37562 20.5456V17.7361L3.82752 15.687L4.60083 14.3397L8.15542 16.3932L11.7122 14.3397L12.4855 15.687L8.93522 17.7361V20.5456L11.8378 22.22L15.3924 20.1687L16.1657 21.516L12.6176 23.5652V27.1219H11.0602V23.5652L8.15759 21.8886L5.25499 23.5652V27.5205L9.64571 29.6411L14.357 26.9205L19.7138 30.0137L25.2179 26.9226L34.0102 32.0022V23.9421L26.9616 19.8741L27.7349 18.5289L34.0751 22.1897L37.8333 20.251V14.7296L31.6664 11.1663L32.4441 9.82116L37.8312 12.9339V7.66154L34.8441 5.80302L27.3385 10.1352V12.9447L33.9603 16.7657L33.1805 18.1109L26.5587 14.2899L20.5694 17.747V21.3059H19.012V17.747L15.4617 15.6978L16.235 14.3527L19.7896 16.4061L25.7811 12.9447V10.1352L22.8785 8.46084L19.3239 10.5122L19.2546 10.393L19.2611 10.3887Z" fill="currentColor"></path>
</svg>