<svg width="202" height="56" viewBox="0 0 202 56" fill="none" xmlns="http://www.w3.org/2000/svg">
<g clip-path="url(#clip0_242_113)">
<path fill-rule="evenodd" clip-rule="evenodd" d="M55.412 35.145V37.814H38.8945V19.4586H41.8682V35.145H55.412ZM53.0999 26.1335L56.4025 19.7918H53.2647L50.787 26.1335H53.0999ZM80.1045 22.4716C79.0335 20.7686 77.4692 19.337 75.6271 18.3616C73.7849 17.3855 71.6649 16.8655 69.5455 16.8655C67.4262 16.8655 65.3055 17.3855 63.464 18.3616C61.6218 19.337 60.0569 20.7686 58.9859 22.4716C57.915 24.1739 57.3366 26.1483 57.3366 28.1227C57.3366 30.0964 57.915 32.0708 58.9859 33.7732C60.0569 35.4762 61.6212 36.9077 63.464 37.8832C65.3061 38.8593 67.4262 39.3793 69.5455 39.3793C71.6649 39.3793 73.7849 38.86 75.6271 37.8832C77.4692 36.9077 79.0335 35.4762 80.1045 33.7732C81.1761 32.0708 81.7538 30.0958 81.7538 28.1227C81.7538 26.149 81.1761 24.1746 80.1045 22.4716ZM77.5344 32.6177C76.7353 33.9532 75.5659 35.0798 74.1858 35.849C72.8057 36.6175 71.2155 37.0273 69.6246 37.0273C68.0338 37.0273 66.4436 36.6175 65.0635 35.849C63.684 35.0798 62.5147 33.9539 61.7149 32.6177C60.9152 31.2815 60.4857 29.7364 60.4857 28.1912C60.4857 26.6455 60.9152 25.1003 61.7149 23.7648C62.5147 22.4293 63.6834 21.3027 65.0635 20.5342C66.4436 19.765 68.0345 19.3552 69.6246 19.3552C71.2148 19.3552 72.8057 19.765 74.1858 20.5342C75.5659 21.3027 76.7346 22.4286 77.5344 23.7648C78.3343 25.1001 78.7594 26.6303 78.7642 28.1912C78.7592 29.7521 78.3341 31.2823 77.5344 32.6177ZM102.489 27.3743C101.951 28.5701 100.934 29.2614 100.138 29.6793C99.3423 30.0978 98.7686 30.2429 98.1908 30.2221L103.972 37.8147H100.669L95.0776 30.4726H87.7848V37.8147H84.8119V19.4586H96.7037C97.9056 19.4586 99.1249 19.6978 100.201 20.3091C101.276 20.9204 102.207 21.8495 102.644 23.1642C103.081 24.4782 103.025 26.1786 102.489 27.3743ZM99.1628 27.2487C99.789 26.714 100.16 25.8346 100.127 24.9626C100.095 24.09 99.66 23.226 99.0385 22.6987C98.4162 22.172 97.6211 22.1283 96.8692 22.1283H87.7848V27.8023H96.8692C97.6723 27.8023 98.5365 27.7841 99.1628 27.2487ZM119.663 27.3018V29.8042H109.587V35.145H123.131V37.814H106.614V19.4586H123.131V22.1283H109.587V27.3018H119.663ZM119.828 16.621H115.368L113.552 18.9575L119.828 16.621ZM128.955 33.1417L126.599 37.814H123.627L132.876 19.4579H135.849L145.099 37.814H142.126L139.772 33.1417H128.955ZM134.362 22.4085L130.131 30.8059H138.594L134.362 22.4085ZM163.102 35.145V37.814H146.586V19.4586H149.558V35.145H163.102ZM161.815 23.1421L161.789 22.704C161.785 22.6234 161.792 22.5428 161.759 22.4514C161.726 22.3574 161.677 22.2704 161.612 22.1948C161.567 22.138 161.501 22.1007 161.429 22.0907C161.558 22.0455 161.666 21.9561 161.736 21.8381C161.814 21.7125 161.862 21.5465 161.86 21.3685C161.858 21.1905 161.804 20.9997 161.71 20.8586C161.507 20.5583 161.15 20.5073 160.838 20.5221H159.522V23.5888H160.033V22.3292H160.796C160.879 22.3292 161.018 22.3178 161.157 22.4273C161.341 22.6469 161.259 22.9358 161.292 23.181C161.294 23.3275 161.308 23.4659 161.368 23.5888H161.942V23.4941C161.838 23.4504 161.828 23.2972 161.815 23.1421ZM161.184 21.7911C161.026 21.8932 160.862 21.8939 160.749 21.8919H160.029V20.9581C160.343 20.9621 160.66 20.9446 160.971 20.9702C161.043 20.978 161.112 21.0043 161.171 21.0467C161.23 21.089 161.277 21.146 161.308 21.212C161.374 21.4149 161.376 21.6325 161.184 21.7911Z" fill="#868686"/>
</g>
<defs>
<clipPath id="clip0_242_113">
<rect width="125" height="24" fill="white" transform="translate(38.5 16)"/>
</clipPath>
</defs>
</svg>
